<svg id="Layer_1" data-name="Layer 1" xmlns="http://www.w3.org/2000/svg" viewBox="0 0 396.39 386.6"><defs><style>.cls-1,.cls-2{fill:#181616;}.cls-1{fill-rule:evenodd;}</style></defs><path class="cls-1" d="M217.71,38.71c-109.45,0-198.2,88.73-198.2,198.2A198.24,198.24,0,0,0,155.05,425c9.9,1.84,13.54-4.3,13.54-9.53,0-4.73-.18-20.34-.27-36.9-55.14,12-66.77-23.39-66.77-23.39-9-22.9-22-29-22-29-18-12.3,1.36-12,1.36-12,19.9,1.4,30.38,20.43,30.38,20.43C129,364.83,157.65,356.07,169,351c1.78-12.81,6.91-21.56,12.58-26.51-44-5-90.3-22-90.3-97.95,0-21.63,7.74-39.31,20.42-53.19-2.06-5-8.84-25.15,1.92-52.46,0,0,16.65-5.32,54.52,20.32a188,188,0,0,1,99.26,0c37.83-25.64,54.44-20.32,54.44-20.32,10.79,27.31,4,47.46,1.95,52.46,12.71,13.88,20.4,31.56,20.4,53.19,0,76.13-46.37,92.89-90.5,97.8,7.11,6.15,13.44,18.21,13.44,36.7,0,26.52-.23,47.86-.23,54.39,0,5.27,3.57,11.45,13.61,9.51a198.23,198.23,0,0,0,135.43-188C415.9,127.44,327.16,38.71,217.71,38.71Z" transform="translate(-19.51 -38.71)"/><path class="cls-2" d="M94.58,323.27c-.44,1-2,1.29-3.4.61s-2.24-2-1.78-3,2-1.29,3.42-.62,2.26,2,1.76,3Zm-2.44-1.8" transform="translate(-19.51 -38.71)"/><path class="cls-2" d="M102.61,332.23c-1,.87-2.8.47-4-.92S97,328.08,98,327.19s2.77-.46,4.06.92,1.55,3.23.57,4.12Zm-1.89-2" transform="translate(-19.51 -38.71)"/><path class="cls-2" d="M110.42,343.64c-1.21.85-3.2.06-4.43-1.71s-1.21-3.87,0-4.72,3.19-.08,4.43,1.66,1.21,3.91,0,4.77Zm0,0" transform="translate(-19.51 -38.71)"/><path class="cls-2" d="M121.13,354.67c-1.09,1.2-3.4.88-5.1-.76s-2.21-3.86-1.12-5.06,3.43-.86,5.13.76,2.24,3.88,1.09,5.06Zm0,0" transform="translate(-19.51 -38.71)"/><path class="cls-2" d="M135.9,361.08c-.48,1.55-2.71,2.25-5,1.59s-3.7-2.5-3.25-4.06,2.7-2.3,5-1.6,3.71,2.49,3.25,4.07Zm0,0" transform="translate(-19.51 -38.71)"/><path class="cls-2" d="M152.12,362.26c0,1.64-1.85,3-4.21,3s-4.29-1.27-4.31-2.88,1.86-3,4.23-3,4.29,1.27,4.29,2.89Zm0,0" transform="translate(-19.51 -38.71)"/><path class="cls-2" d="M167.21,359.69c.28,1.6-1.36,3.23-3.7,3.67s-4.43-.56-4.72-2.14,1.38-3.28,3.68-3.7,4.44.55,4.74,2.17Zm0,0" transform="translate(-19.51 -38.71)"/></svg>